<?xml version="1.0" encoding="utf-8"?>
<!-- Generator: Adobe Illustrator 26.5.0, SVG Export Plug-In . SVG Version: 6.00 Build 0)  -->
<svg version="1.1" id="Layer_1" xmlns="http://www.w3.org/2000/svg" xmlns:xlink="http://www.w3.org/1999/xlink" x="0px" y="0px"
	 viewBox="0 0 140 140" style="enable-background:new 0 0 140 140;" xml:space="preserve">
<style type="text/css">
	.st0{fill:none;stroke:#FFF2DC;stroke-width:3.9856;stroke-linecap:round;stroke-linejoin:round;stroke-miterlimit:10;}
</style>
<g>
	<circle class="st0" cx="70" cy="69.4" r="52.6"/>
	<path class="st0" d="M37.2,28.3c0,0,34,27.7,1.3,83.2"/>
	<path class="st0" d="M105,30.1c0,0-33.2,28.2,0,78.6"/>
	<polyline class="st0" points="34.5,37.9 38.7,30.1 45.7,26.8 	"/>
	<polyline class="st0" points="39.6,45 45.7,38.6 53.4,37.3 	"/>
	<polyline class="st0" points="41.7,53.9 49.6,47.6 57.7,48.3 	"/>
	<polyline class="st0" points="44.9,61.5 52.1,58 60.9,59.5 	"/>
	<polyline class="st0" points="45.7,71 52.6,68.2 60.9,71 	"/>
	<polyline class="st0" points="43.3,79.4 51.7,77.5 60.1,81.8 	"/>
	<polyline class="st0" points="40.9,86.6 49.6,86.6 56.9,93.7 	"/>
	<polyline class="st0" points="37.2,95 46.1,96.5 51.3,104.1 	"/>
	<polyline class="st0" points="34.5,102.3 42.2,104.9 45.7,111.5 	"/>
	<polyline class="st0" points="97.6,27.9 104.4,30.6 108.7,38.7 	"/>
	<polyline class="st0" points="90.2,37.9 98,38.7 105,46.2 	"/>
	<polyline class="st0" points="84.8,49.1 93.4,48.1 101.3,53.9 	"/>
	<polyline class="st0" points="82.4,59.5 90.8,58.4 98.3,61.9 	"/>
	<polyline class="st0" points="81.5,71 90.2,68.2 97.6,71.6 	"/>
	<polyline class="st0" points="83.2,82.6 91.4,77.5 100.5,79.6 	"/>
	<polyline class="st0" points="86.5,93.7 94.4,88.2 103.1,88.2 	"/>
	<polyline class="st0" points="91.8,104.1 98.3,97.2 106.3,96.1 	"/>
	<polyline class="st0" points="97.6,110.8 102.4,104.6 108.7,102.3 	"/>
</g>
</svg>
