<?xml version="1.0" encoding="utf-8"?>
<!-- Generator: Adobe Illustrator 26.5.0, SVG Export Plug-In . SVG Version: 6.00 Build 0)  -->
<svg version="1.1" id="Layer_1" xmlns="http://www.w3.org/2000/svg" xmlns:xlink="http://www.w3.org/1999/xlink" x="0px" y="0px"
	 viewBox="0 0 140 140" style="enable-background:new 0 0 140 140;" xml:space="preserve">
<style type="text/css">
	.st0{fill:none;stroke:#FFF2DC;stroke-width:4.2765;stroke-linecap:round;stroke-linejoin:round;stroke-miterlimit:10;}
</style>
<g>
	<path class="st0" d="M106.8,64.6l1.3-0.9c0,0,5.1-12-7.7-13.7c0,0,3.1-22.3-25.4-26.1l-17.4-8.1c0,0-12,7.7-10.3,18.8
		c0,0-11.1,3.4-9.4,18.8c0,0-10.3,2.6-9.4,10.3c0.1,0.6,0.2,1.1,0.4,1.6"/>
	<line class="st0" x1="47.4" y1="36.3" x2="56.2" y2="36.3"/>
	<line class="st0" x1="38" y1="55.1" x2="68.8" y2="47"/>
	<line class="st0" x1="93.9" y1="55.1" x2="100.4" y2="51.7"/>
	<path class="st0" d="M78.2,45.3c0,0,16.3-3,18-9"/>
	<circle class="st0" cx="73.1" cy="22.6" r="9.4"/>
	<path class="st0" d="M73.1,12.5c0,0,3.4-9.5,10.3-6.9"/>
	<path class="st0" d="M106.8,78.2H30.7c-3.5,0-6.4-2.9-6.4-6.4v0c0-3.5,2.9-6.4,6.4-6.4h76.1c3.5,0,6.4,2.9,6.4,6.4v0
		C113.3,75.3,110.4,78.2,106.8,78.2z"/>
	<line class="st0" x1="79.9" y1="65.4" x2="89.3" y2="58.5"/>
	<path class="st0" d="M104.7,78.2c0,18.4-16.5,33.4-36.8,33.4S31.1,96.6,31.1,78.2"/>
	<path class="st0" d="M84.6,78.2c0,18.4-7.1,33.4-15.8,33.4S53,96.6,53,78.2"/>
	<line class="st0" x1="44.8" y1="133" x2="92.3" y2="133"/>
	<path class="st0" d="M56.2,133c0,0,12.6-4.5,12.6-11.2V78.2"/>
	<path class="st0" d="M56.2,133c0,0,12.6-4.5,12.6-11.2V78.2"/>
	<path class="st0" d="M81.6,133c0,0-12.6-4.5-12.6-11.2V78.2"/>
	<path class="st0" d="M24.3,104.3c0,0-0.9,9-9.4,9c0,0,9.4,0.6,9.4,10.1c0,0,2-9.9,9.6-9.6C33.9,113.8,24.3,111.5,24.3,104.3z"/>
	<rect x="117.5" y="6.4" transform="matrix(0.7071 -0.7071 0.7071 0.7071 27.4381 90.9588)" class="st0" width="12" height="12"/>
	<circle class="st0" cx="11.5" cy="15.8" r="3.4"/>
	<circle class="st0" cx="113.3" cy="97.9" r="2.6"/>
</g>
</svg>
