<?xml version="1.0" encoding="utf-8"?>
<!-- Generator: Adobe Illustrator 25.3.1, SVG Export Plug-In . SVG Version: 6.00 Build 0)  -->
<svg version="1.1" id="Layer_1" xmlns="http://www.w3.org/2000/svg" xmlns:xlink="http://www.w3.org/1999/xlink" x="0px" y="0px"
	 viewBox="0 0 140 140" style="enable-background:new 0 0 140 140;" xml:space="preserve">
<style type="text/css">
	.st0{fill:none;stroke:#FFF2DC;stroke-width:5;stroke-linecap:round;stroke-linejoin:round;stroke-miterlimit:10;}
</style>
<g>
	<polygon class="st0" points="7.15,32.98 7.15,115.57 133.31,115.57 133.31,24.58 61.61,24.58 51.38,32.29 	"/>
	<polyline class="st0" points="11.24,32.92 11.24,24.58 23.92,24.58 23.92,32.72 	"/>
	<polyline class="st0" points="32.7,32.58 32.7,24.58 49.81,24.58 49.81,32.31 	"/>
	<line class="st0" x1="17.58" y1="41.58" x2="33.74" y2="41.58"/>
	<circle class="st0" cx="69.78" cy="79.27" r="12.71"/>
	<circle class="st0" cx="70.23" cy="79.72" r="27.68"/>
	<circle class="st0" cx="70.23" cy="79.72" r="35.85"/>
	<rect x="99.73" y="32.98" class="st0" width="25.41" height="10.89"/>
	<circle class="st0" cx="120.6" cy="91.98" r="5.45"/>
	<line class="st0" x1="15.42" y1="69.28" x2="15.42" y2="97.42"/>
	<rect x="111.53" y="59.3" class="st0" width="3.63" height="3.63"/>
	<rect x="13.74" y="59.31" class="st0" width="3.63" height="3.63"/>
</g>
</svg>
