<?xml version="1.0" encoding="utf-8"?>
<!-- Generator: Adobe Illustrator 25.3.1, SVG Export Plug-In . SVG Version: 6.00 Build 0)  -->
<svg version="1.1" id="Layer_1" xmlns="http://www.w3.org/2000/svg" xmlns:xlink="http://www.w3.org/1999/xlink" x="0px" y="0px"
	 viewBox="0 0 140 140" style="enable-background:new 0 0 140 140;" xml:space="preserve">
<style type="text/css">
	.st0{fill:none;stroke:#FFF2DC;stroke-width:4;stroke-linecap:round;stroke-linejoin:round;stroke-miterlimit:10;}
</style>
<g>
	<path class="st0" d="M89.36,29.95c20.83,5.59,36.17,24.61,36.17,47.2c0,26.99-21.88,48.87-48.87,48.87s-48.87-21.88-48.87-48.87
		c0-24.66,18.26-45.05,41.99-48.39"/>
	<path class="st0" d="M77.59,136.2c-1.17,0.07-2.35,0.1-3.53,0.1c-32.65,0-59.13-26.47-59.13-59.13c0-22.9,13.01-42.75,32.05-52.58"
		/>
	<path class="st0" d="M31.33,58.87c0,0,11.89,7.99,18.32,2.85s5.14-14.15,5.14-14.15s0-6.43,5.14-9c5.14-2.57,1.33-7.82,1.33-7.82"
		/>
	<path class="st0" d="M71.52,45c-0.91,0.91-12.86,7.72-6.43,12.86s2.31,16.58,2.31,16.58s-4.89,11.72,13.12-3.72
		c0,0,6.43-9,11.57-6.43c5.14,2.57,8.45-0.85,8.45-0.85s3.12-13.3-8.45-14.59s-10.29-7.72-10.29-7.72S75.37,41.14,71.52,45z"/>
	<path class="st0" d="M117.25,49.93c0,0-2.01,18.21-13.59,20.78s-9,12.86-9,12.86s1.77,5.49,11.17-3.69s15.82,16.36,15.82,16.36"/>
	<path class="st0" d="M63.19,124.13c0,0,3.18-9.12,13.47-12.62c10.29-3.5,7.72-9.93,7.72-9.93s3.11-9.37,11.84-5.33
		c8.74,4.04,19.39,10.42,19.39,10.42"/>
	<path class="st0" d="M34.22,88.72c0,0,6.43-19.29,10.29-2.57s15.43,7.72,15.43,7.72s5.08-4.16,4.47,2.42
		c-0.61,6.58-10.9,9.15-10.9,9.15S31.65,101.58,34.22,88.72z"/>
	<path class="st0" d="M48.37,11.56l6.43,12.86l43.68-6.43c0,0,13.5-2.57-0.94-6.43s-34.9,4.16-34.9,4.16l-8.38-5.21L48.37,11.56z"/>
	<polyline class="st0" points="80.41,10.51 71.52,3.85 64.46,4.8 70.92,13.1 	"/>
	<polyline class="st0" points="75.15,21.43 74.09,32.14 81.16,32.14 86.1,19.81 	"/>
</g>
</svg>
